<svg width="28" height="28" viewBox="0 0 28 28" fill="none" xmlns="http://www.w3.org/2000/svg">
<path d="M0 14C0 6.26801 6.26801 0 14 0C21.732 0 28 6.26801 28 14C28 21.732 21.732 28 14 28C6.26801 28 0 21.732 0 14Z" fill="#1769FF"/>
<path d="M16.0758 10.3243C16.0758 10.6371 16.3294 10.8908 16.6423 10.8908H19.4639C19.7767 10.8908 20.0304 10.6371 20.0304 10.3243C20.0304 10.0114 19.7767 9.75778 19.4639 9.75778H16.6423C16.3294 9.75778 16.0758 10.0114 16.0758 10.3243ZM17.0126 13.3629C16.5824 13.8007 17.0881 14.405 17.7019 14.405H18.4143C19.0622 14.405 19.6284 13.7631 19.1374 13.3404C18.8512 13.0987 18.4991 12.9783 18.0777 12.9783C17.6211 12.9783 17.2646 13.1065 17.0126 13.3629ZM19.6818 11.8419C20.1586 12.0515 20.551 12.3841 20.8601 12.838C21.142 13.2382 21.3228 13.7025 21.4054 14.23C21.5202 14.9636 20.8684 15.5665 20.1258 15.5665H18.1534C17.2484 15.5665 16.4326 16.5189 17.2075 16.9862C17.4797 17.1552 17.8072 17.24 18.1918 17.24C18.5966 17.24 18.9276 17.137 19.1813 16.9317C19.4676 16.7025 19.7783 16.4683 20.145 16.4683H20.1816C20.814 16.4683 21.2642 17.0387 20.8563 17.5221C20.8105 17.5764 20.7617 17.6308 20.71 17.6853C20.0989 18.3393 19.2428 18.6667 18.1426 18.6667C17.2339 18.6667 16.4323 18.3912 15.7395 17.8386C15.0432 17.2868 14.6973 16.3877 14.6973 15.1438C14.6973 13.9771 15.0107 13.0823 15.6368 12.4595C16.2645 11.8384 17.0767 11.5257 18.0768 11.5257C18.6712 11.5257 19.2059 11.6314 19.6818 11.8419ZM9.58688 14.4292C8.91642 14.4292 8.3729 14.9727 8.3729 15.6432C8.3729 16.3137 8.91642 16.8572 9.58688 16.8572H10.6136C11.014 16.8572 11.3266 16.8035 11.5487 16.6969C11.9535 16.4977 12.1554 16.12 12.1554 15.5605C12.1554 15.0858 11.9605 14.761 11.568 14.5834C11.3485 14.4847 11.0403 14.4327 10.6452 14.4292H9.58688ZM9.37726 10.9142C8.82257 10.9142 8.3729 11.3638 8.3729 11.9185C8.3729 12.4732 8.82257 12.9229 9.37726 12.9229H10.6171C11.0166 12.9229 11.3424 12.8475 11.5935 12.6968C11.8428 12.5461 11.9684 12.2793 11.9684 11.8982C11.9684 11.4729 11.8033 11.1931 11.4732 11.0562C11.187 10.9618 10.8235 10.9142 10.3818 10.9142H9.37726ZM13.3846 10.3035C13.6665 10.6907 13.8078 11.1532 13.8078 11.6929C13.8078 12.2481 13.6665 12.6959 13.3811 13.0338C13.1665 13.2874 13.1859 13.7693 13.4323 13.9923C13.5514 14.1001 13.6552 14.2212 13.7438 14.3556C13.9826 14.7211 14.1029 15.1664 14.1029 15.6895C14.1029 16.2292 13.9659 16.7134 13.6911 17.1413C13.5172 17.4245 13.2995 17.6636 13.0378 17.8576C12.7437 18.0803 12.3969 18.2318 11.9956 18.315C11.5944 18.3973 11.1606 18.4371 10.6918 18.4371C8.39518 18.4371 6.53345 16.5754 6.53345 14.2788V13.7928C6.53345 11.3299 8.53002 9.33334 10.9929 9.33334C12.1185 9.3498 12.9149 9.67289 13.3846 10.3035Z" fill="white"/>
</svg>
