<svg width="28" height="28" viewBox="0 0 28 28" fill="none" xmlns="http://www.w3.org/2000/svg">
<path d="M0 14C0 6.26801 6.26801 0 14 0C21.732 0 28 6.26801 28 14C28 21.732 21.732 28 14 28C6.26801 28 0 21.732 0 14Z" fill="#F26798"/>
<path d="M21.4668 13.9896C21.4668 14.4946 21.4154 14.9989 21.3144 15.4904C21.2159 15.9702 21.0701 16.4413 20.8791 16.8917C20.6924 17.3341 20.4609 17.7604 20.1903 18.158C19.9238 18.553 19.6168 18.9236 19.2796 19.2615C18.9416 19.5979 18.5697 19.904 18.1748 20.1717C17.7759 20.4403 17.349 20.6715 16.9064 20.8591C16.4554 21.0491 15.9832 21.1947 15.5037 21.293C15.0116 21.3942 14.5055 21.4459 13.9998 21.4459C13.4937 21.4459 12.9876 21.3942 12.4962 21.293C12.016 21.1947 11.5438 21.0491 11.0932 20.8591C10.6506 20.6715 10.2232 20.4403 9.82436 20.1717C9.4295 19.9041 9.05761 19.5979 8.72035 19.2615C8.38274 18.9236 8.07572 18.553 7.80884 18.158C7.53976 17.7604 7.30786 17.3341 7.12047 16.8917C6.92939 16.4413 6.78321 15.9702 6.6844 15.4904C6.5845 14.9989 6.53345 14.4946 6.53345 13.9896C6.53345 13.4843 6.58447 12.979 6.68443 12.4885C6.78324 12.0087 6.92942 11.5368 7.1205 11.0872C7.30789 10.6445 7.53979 10.2178 7.80887 9.82022C8.07575 9.42485 8.38277 9.05492 8.72038 8.71669C9.05764 8.38027 9.42953 8.07484 9.82439 7.80761C10.2233 7.53781 10.6506 7.30665 11.0932 7.11877C11.5439 6.92832 12.016 6.78234 12.4962 6.68479C12.9877 6.58431 13.4937 6.53333 13.9998 6.53333C14.5055 6.53333 15.0116 6.58431 15.5038 6.68479C15.9832 6.78237 16.4554 6.92835 16.9064 7.11877C17.349 7.30662 17.776 7.53781 18.1748 7.80761C18.5697 8.07484 18.9416 8.38027 19.2796 8.71669C19.6168 9.05492 19.9239 9.42485 20.1904 9.82022C20.4609 10.2178 20.6924 10.6445 20.8791 11.0872C21.0701 11.5368 21.2159 12.0087 21.3144 12.4885C21.4154 12.979 21.4668 13.4843 21.4668 13.9896ZM11.2791 8.23029C9.50092 9.06878 8.17378 10.7049 7.75995 12.6768C7.92805 12.6782 10.5853 12.7117 13.6468 11.8995C12.5432 9.94145 11.3641 8.34355 11.2791 8.23029ZM14.1751 12.88C10.8919 13.8615 7.74136 13.7908 7.62834 13.7865C7.6265 13.8549 7.62323 13.9212 7.62323 13.9896C7.62323 15.6254 8.24123 17.1167 9.25701 18.2442C9.25482 18.241 10.9998 15.1496 14.4409 14.0384C14.5241 14.0108 14.6087 13.986 14.6925 13.962C14.5325 13.6001 14.3578 13.2375 14.1751 12.88ZM18.2109 9.21076C17.0883 8.22227 15.6142 7.62267 13.9998 7.62267C13.4817 7.62267 12.9789 7.6853 12.4972 7.80107C12.5928 7.92924 13.7905 9.51587 14.881 11.5154C17.287 10.6146 18.1952 9.23405 18.2109 9.21076ZM15.1271 15.0171C15.1129 15.0218 15.0987 15.0258 15.0848 15.0309C11.3226 16.3406 10.0939 18.98 10.0806 19.0088C11.1632 19.8494 12.5209 20.3566 13.9998 20.3566C14.8828 20.3566 15.724 20.1771 16.4892 19.852C16.3948 19.2957 16.0244 17.3457 15.1271 15.0171ZM17.563 19.2702C18.9948 18.3054 20.0117 16.7734 20.2953 14.9988C20.1641 14.9566 18.3801 14.3926 16.3219 14.7221C17.1583 17.0173 17.4981 18.8865 17.563 19.2702ZM15.3718 12.4642C15.5198 12.7678 15.6631 13.0769 15.7954 13.3874C15.8425 13.4989 15.8884 13.6081 15.9333 13.7173C18.1238 13.442 20.2819 13.9052 20.3741 13.9241C20.3595 12.4146 19.8188 11.0293 18.9241 9.94474C18.9121 9.96182 17.8894 11.4374 15.3718 12.4642Z" fill="white"/>
</svg>
