<svg width="28" height="28" viewBox="0 0 28 28" fill="none" xmlns="http://www.w3.org/2000/svg">
<path d="M14.0001 0C6.26908 0 0 6.42655 0 14.3544C0 20.6966 4.01146 26.0773 9.57413 27.9753C10.2738 28.1082 10.5307 27.6639 10.5307 27.2848C10.5307 26.9425 10.5177 25.8118 10.5117 24.6123C6.61683 25.4806 5.79497 22.9187 5.79497 22.9187C5.15812 21.2595 4.24051 20.8183 4.24051 20.8183C2.97028 19.9274 4.33626 19.9457 4.33626 19.9457C5.74212 20.047 6.48237 21.4249 6.48237 21.4249C7.73104 23.6194 9.75752 22.985 10.5564 22.6182C10.6821 21.6904 11.0449 21.0572 11.4453 20.6987C8.33567 20.3358 5.06678 19.1049 5.06678 13.6047C5.06678 12.0375 5.61368 10.757 6.50926 9.75179C6.3639 9.39024 5.88469 7.93026 6.64489 5.95305C6.64489 5.95305 7.82053 5.56725 10.4959 7.42443C11.6127 7.10638 12.8103 6.94689 14.0001 6.94142C15.1899 6.94689 16.3885 7.10638 17.5073 7.42443C20.1795 5.56725 21.3535 5.95305 21.3535 5.95305C22.1155 7.93026 21.6361 9.39024 21.4907 9.75179C22.3884 10.757 22.9316 12.0375 22.9316 13.6047C22.9316 19.118 19.6565 20.332 16.539 20.6873C17.0411 21.1328 17.4886 22.0064 17.4886 23.3456C17.4886 25.2662 17.4723 26.812 17.4723 27.2848C17.4723 27.6668 17.7243 28.1144 18.434 27.9734C23.9936 26.0732 28 20.6945 28 14.3544C28 6.42655 21.7318 0 14.0001 0Z" fill="#161514"/>
<path d="M5.34373 20.5114C5.31295 20.582 5.20373 20.6031 5.10422 20.5547C5.00287 20.5083 4.94594 20.412 4.9788 20.3412C5.00888 20.2685 5.11834 20.2482 5.21946 20.2969C5.32105 20.3433 5.3789 20.4405 5.34373 20.5114Z" fill="#161514"/>
<path d="M5.90988 21.1534C5.84323 21.2162 5.71295 21.1871 5.62456 21.0877C5.53315 20.9887 5.51603 20.8561 5.5836 20.7924C5.65233 20.7295 5.77867 20.7589 5.87031 20.858C5.96171 20.9583 5.97953 21.0899 5.90988 21.1534Z" fill="#161514"/>
<path d="M6.46087 21.972C6.37525 22.0325 6.23525 21.9758 6.1487 21.8494C6.06308 21.723 6.06308 21.5714 6.15055 21.5107C6.23733 21.45 6.37525 21.5046 6.46295 21.63C6.54834 21.7585 6.54834 21.9101 6.46087 21.972Z" fill="#161514"/>
<path d="M7.21553 22.7628C7.13894 22.8487 6.9758 22.8256 6.85639 22.7084C6.73421 22.5938 6.70019 22.4312 6.77702 22.3453C6.85454 22.2591 7.01861 22.2834 7.13894 22.3996C7.26019 22.514 7.29722 22.6778 7.21553 22.7628Z" fill="#161514"/>
<path d="M8.2569 23.222C8.22311 23.3333 8.06599 23.3839 7.90771 23.3366C7.74966 23.2879 7.64622 23.1575 7.67815 23.045C7.71101 22.933 7.86883 22.8802 8.02827 22.9308C8.18609 22.9793 8.28976 23.1088 8.2569 23.222Z" fill="#161514"/>
<path d="M9.40054 23.3072C9.40448 23.4244 9.27026 23.5216 9.10411 23.5237C8.93704 23.5275 8.8019 23.4326 8.80005 23.3173C8.80005 23.1989 8.93126 23.1026 9.09833 23.0998C9.26448 23.0965 9.40054 23.1907 9.40054 23.3072Z" fill="#161514"/>
<path d="M10.4649 23.1229C10.4848 23.2373 10.3694 23.3547 10.2044 23.386C10.0422 23.4162 9.89198 23.3455 9.87139 23.2321C9.85125 23.1149 9.96881 22.9975 10.1308 22.9671C10.296 22.9379 10.4439 23.0066 10.4649 23.1229Z" fill="#161514"/>
</svg>
