<svg width="28" height="28" viewBox="0 0 28 28" fill="none" xmlns="http://www.w3.org/2000/svg">
<path d="M0 14C0 6.26801 6.26801 0 14 0C21.732 0 28 6.26801 28 14C28 21.732 21.732 28 14 28C6.26801 28 0 21.732 0 14Z" fill="white"/>
<path d="M13.9999 10.2791C15.1391 10.2791 15.9075 10.7712 16.3457 11.1824L18.0578 9.51065C17.0063 8.53325 15.6379 7.93332 13.9999 7.93332C11.6271 7.93332 9.57795 9.29495 8.58032 11.2767L10.5419 12.8001C11.034 11.3374 12.3956 10.2791 13.9999 10.2791Z" fill="#EA4335"/>
<path d="M19.824 14.1348C19.824 13.636 19.7836 13.272 19.6959 12.8945H14V15.1459H17.3434C17.276 15.7054 16.912 16.548 16.1031 17.1142L18.0175 18.5972C19.1634 17.5389 19.824 15.9818 19.824 14.1348Z" fill="#4285F4"/>
<path d="M10.5488 15.1998C10.4207 14.8224 10.3465 14.4179 10.3465 14C10.3465 13.5821 10.4207 13.1776 10.542 12.8001L8.58046 11.2767C8.16928 12.0991 7.93335 13.0226 7.93335 14C7.93335 14.9774 8.16928 15.9009 8.58046 16.7233L10.5488 15.1998Z" fill="#FBBC05"/>
<path d="M14 20.0666C15.638 20.0666 17.0131 19.5274 18.0175 18.5972L16.1031 17.1142C15.5908 17.4715 14.9032 17.7209 14 17.7209C12.3957 17.7209 11.034 16.6626 10.5487 15.1998L8.58716 16.7232C9.58479 18.705 11.6272 20.0666 14 20.0666Z" fill="#34A853"/>
</svg>
