<svg width="28" height="28" viewBox="0 0 28 28" fill="none" xmlns="http://www.w3.org/2000/svg">
<path d="M0 14C0 6.26801 6.26801 0 14 0C21.732 0 28 6.26801 28 14C28 21.732 21.732 28 14 28C6.26801 28 0 21.732 0 14Z" fill="white"/>
<mask id="mask0" mask-type="alpha" maskUnits="userSpaceOnUse" x="0" y="0" width="28" height="28">
<path d="M0 14C0 6.26801 6.26801 0 14 0C21.732 0 28 6.26801 28 14C28 21.732 21.732 28 14 28C6.26801 28 0 21.732 0 14Z" fill="white"/>
</mask>
<g mask="url(#mask0)">
<path d="M14.0008 6.53333C11.973 6.53333 11.7185 6.54219 10.922 6.57844C10.1271 6.61484 9.58455 6.74068 9.10979 6.92533C8.61869 7.11604 8.20211 7.37116 7.78708 7.78634C7.37174 8.20136 7.11663 8.61795 6.9253 9.10889C6.74018 9.5838 6.61418 10.1265 6.5784 10.9211C6.54278 11.7176 6.53345 11.9722 6.53345 14.0001C6.53345 16.0279 6.54247 16.2816 6.57856 17.0781C6.61511 17.873 6.74096 18.4156 6.92545 18.8903C7.11632 19.3814 7.37143 19.798 7.78662 20.213C8.20149 20.6284 8.61807 20.8841 9.10885 21.0748C9.58392 21.2595 10.1267 21.3853 10.9214 21.4217C11.7179 21.4579 11.9722 21.4668 13.9999 21.4668C16.0279 21.4668 16.2816 21.4579 17.078 21.4217C17.8729 21.3853 18.4161 21.2595 18.8912 21.0748C19.3822 20.8841 19.7981 20.6284 20.213 20.213C20.6283 19.798 20.8834 19.3814 21.0748 18.8905C21.2583 18.4156 21.3843 17.8728 21.4217 17.0782C21.4574 16.2818 21.4668 16.0279 21.4668 14.0001C21.4668 11.9722 21.4574 11.7177 21.4217 10.9213C21.3843 10.1264 21.2583 9.5838 21.0748 9.10904C20.8834 8.61795 20.6283 8.20136 20.213 7.78634C19.7977 7.371 19.3823 7.11589 18.8908 6.92533C18.4147 6.74068 17.8719 6.61484 17.077 6.57844C16.2805 6.54219 16.0269 6.53333 13.9985 6.53333H14.0008ZM13.331 7.8789C13.5298 7.87858 13.7516 7.8789 14.0008 7.8789C15.9944 7.8789 16.2307 7.88605 17.018 7.92183C17.746 7.95512 18.1411 8.07676 18.4043 8.17896C18.7528 8.3143 19.0012 8.47608 19.2624 8.73741C19.5237 8.99875 19.6855 9.24764 19.8211 9.59609C19.9233 9.85898 20.0451 10.2541 20.0783 10.9821C20.1141 11.7692 20.1218 12.0057 20.1218 13.9984C20.1218 15.991 20.1141 16.2275 20.0783 17.0146C20.045 17.7426 19.9233 18.1377 19.8211 18.4006C19.6858 18.7491 19.5237 18.9972 19.2624 19.2584C19.001 19.5197 18.7529 19.6815 18.4043 19.8168C18.1414 19.9195 17.746 20.0408 17.018 20.0741C16.2309 20.1099 15.9944 20.1177 14.0008 20.1177C12.007 20.1177 11.7707 20.1099 10.9836 20.0741C10.2556 20.0405 9.8605 19.9189 9.59715 19.8167C9.2487 19.6813 8.99981 19.5195 8.73847 19.2582C8.47713 18.9969 8.31535 18.7486 8.17971 18.4C8.07751 18.1371 7.95571 17.742 7.92257 17.014C7.88679 16.2269 7.87964 15.9904 7.87964 13.9965C7.87964 12.0026 7.88679 11.7674 7.92257 10.9802C7.95586 10.2522 8.07751 9.85712 8.17971 9.59391C8.31504 9.24547 8.47713 8.99657 8.73847 8.73524C8.99981 8.4739 9.2487 8.31212 9.59715 8.17648C9.86035 8.07381 10.2556 7.95247 10.9836 7.91903C11.6724 7.88792 11.9394 7.87858 13.331 7.87703V7.8789ZM17.9865 9.11869C17.4918 9.11869 17.0905 9.51956 17.0905 10.0144C17.0905 10.5091 17.4918 10.9104 17.9865 10.9104C18.4812 10.9104 18.8825 10.5091 18.8825 10.0144C18.8825 9.51971 18.4812 9.11837 17.9865 9.11837V9.11869ZM14.0008 10.1656C11.8832 10.1656 10.1663 11.8825 10.1663 14.0001C10.1663 16.1177 11.8832 17.8338 14.0008 17.8338C16.1184 17.8338 17.8347 16.1177 17.8347 14.0001C17.8347 11.8825 16.1183 10.1656 14.0007 10.1656H14.0008ZM14.0008 11.5112C15.3753 11.5112 16.4897 12.6254 16.4897 14.0001C16.4897 15.3746 15.3753 16.489 14.0008 16.489C12.6262 16.489 11.5119 15.3746 11.5119 14.0001C11.5119 12.6254 12.6262 11.5112 14.0008 11.5112Z" fill="black"/>
</g>
</svg>
