<svg width="28" height="28" viewBox="0 0 28 28" fill="none" xmlns="http://www.w3.org/2000/svg">
<path d="M0 14C0 6.26801 6.26801 0 14 0C21.732 0 28 6.26801 28 14C28 21.732 21.732 28 14 28C6.26801 28 0 21.732 0 14Z" fill="#0077B5"/>
<path d="M9.89376 11.5954V21.1281H6.72106V11.5954H9.89376ZM10.1027 8.64657C10.1027 9.56188 9.41375 10.2943 8.30747 10.2943H8.2872C7.22205 10.2943 6.53345 9.56188 6.53345 8.64657C6.53345 7.7119 7.24302 7 8.32838 7C9.41375 7 10.0821 7.7119 10.1027 8.64657ZM21.3358 15.6623L21.3356 21.1281H18.1631V16.0281C18.1631 14.7471 17.7039 13.873 16.5554 13.873C15.6789 13.873 15.1568 14.4623 14.9275 15.0314C14.8436 15.2354 14.823 15.5196 14.823 15.8045V21.1283H11.6499C11.6499 21.1283 11.6917 12.4902 11.6499 11.5957H14.823V12.9459C15.2441 12.2968 15.9983 11.3716 17.6828 11.3716C19.7706 11.3716 21.3358 12.7343 21.3358 15.6623Z" fill="white"/>
</svg>
