<svg width="211" height="50" viewBox="0 0 211 50" fill="none" xmlns="http://www.w3.org/2000/svg">
<path d="M69.4361 19.49C70.7681 19.49 71.9321 19.748 72.9281 20.264C73.9361 20.768 74.7101 21.5 75.2501 22.46C75.8021 23.408 76.0781 24.518 76.0781 25.79C76.0781 27.062 75.8021 28.166 75.2501 29.102C74.7101 30.038 73.9361 30.758 72.9281 31.262C71.9321 31.754 70.7681 32 69.4361 32H65.3501V19.49H69.4361ZM69.4361 30.326C70.9001 30.326 72.0221 29.93 72.8021 29.138C73.5821 28.346 73.9721 27.23 73.9721 25.79C73.9721 24.338 73.5821 23.204 72.8021 22.388C72.0221 21.572 70.9001 21.164 69.4361 21.164H67.4021V30.326H69.4361ZM77.4278 26.996C77.4278 26 77.6318 25.118 78.0398 24.35C78.4598 23.582 79.0238 22.988 79.7318 22.568C80.4518 22.136 81.2438 21.92 82.1078 21.92C82.8878 21.92 83.5658 22.076 84.1418 22.388C84.7298 22.688 85.1978 23.066 85.5458 23.522V22.082H87.6158V32H85.5458V30.524C85.1978 30.992 84.7238 31.382 84.1238 31.694C83.5238 32.006 82.8398 32.162 82.0718 32.162C81.2198 32.162 80.4398 31.946 79.7318 31.514C79.0238 31.07 78.4598 30.458 78.0398 29.678C77.6318 28.886 77.4278 27.992 77.4278 26.996ZM85.5458 27.032C85.5458 26.348 85.4018 25.754 85.1138 25.25C84.8378 24.746 84.4718 24.362 84.0158 24.098C83.5598 23.834 83.0678 23.702 82.5398 23.702C82.0118 23.702 81.5198 23.834 81.0638 24.098C80.6078 24.35 80.2358 24.728 79.9478 25.232C79.6718 25.724 79.5338 26.312 79.5338 26.996C79.5338 27.68 79.6718 28.28 79.9478 28.796C80.2358 29.312 80.6078 29.708 81.0638 29.984C81.5318 30.248 82.0238 30.38 82.5398 30.38C83.0678 30.38 83.5598 30.248 84.0158 29.984C84.4718 29.72 84.8378 29.336 85.1138 28.832C85.4018 28.316 85.5458 27.716 85.5458 27.032ZM95.3151 21.92C96.0951 21.92 96.7911 22.082 97.4031 22.406C98.0271 22.73 98.5131 23.21 98.8611 23.846C99.2091 24.482 99.3831 25.25 99.3831 26.15V32H97.3491V26.456C97.3491 25.568 97.1271 24.89 96.6831 24.422C96.2391 23.942 95.6331 23.702 94.8651 23.702C94.0971 23.702 93.4851 23.942 93.0291 24.422C92.5851 24.89 92.3631 25.568 92.3631 26.456V32H90.3111V22.082H92.3631V23.216C92.6991 22.808 93.1251 22.49 93.6411 22.262C94.1691 22.034 94.7271 21.92 95.3151 21.92ZM103.045 20.768C102.673 20.768 102.361 20.642 102.109 20.39C101.857 20.138 101.731 19.826 101.731 19.454C101.731 19.082 101.857 18.77 102.109 18.518C102.361 18.266 102.673 18.14 103.045 18.14C103.405 18.14 103.711 18.266 103.963 18.518C104.215 18.77 104.341 19.082 104.341 19.454C104.341 19.826 104.215 20.138 103.963 20.39C103.711 20.642 103.405 20.768 103.045 20.768ZM104.053 22.082V32H102.001V22.082H104.053ZM115.837 26.798C115.837 27.17 115.813 27.506 115.765 27.806H108.187C108.247 28.598 108.541 29.234 109.069 29.714C109.597 30.194 110.245 30.434 111.013 30.434C112.117 30.434 112.897 29.972 113.353 29.048H115.567C115.267 29.96 114.721 30.71 113.929 31.298C113.149 31.874 112.177 32.162 111.013 32.162C110.065 32.162 109.213 31.952 108.457 31.532C107.713 31.1 107.125 30.5 106.693 29.732C106.273 28.952 106.063 28.052 106.063 27.032C106.063 26.012 106.267 25.118 106.675 24.35C107.095 23.57 107.677 22.97 108.421 22.55C109.177 22.13 110.041 21.92 111.013 21.92C111.949 21.92 112.783 22.124 113.515 22.532C114.247 22.94 114.817 23.516 115.225 24.26C115.633 24.992 115.837 25.838 115.837 26.798ZM113.695 26.15C113.683 25.394 113.413 24.788 112.885 24.332C112.357 23.876 111.703 23.648 110.923 23.648C110.215 23.648 109.609 23.876 109.105 24.332C108.601 24.776 108.301 25.382 108.205 26.15H113.695ZM119.908 18.68V32H117.856V18.68H119.908ZM134.82 29.444H129.582L128.682 32H126.54L131.022 19.472H133.398L137.88 32H135.72L134.82 29.444ZM134.244 27.77L132.21 21.956L130.158 27.77H134.244ZM139.145 26.996C139.145 26 139.349 25.118 139.757 24.35C140.177 23.582 140.741 22.988 141.449 22.568C142.169 22.136 142.967 21.92 143.843 21.92C144.491 21.92 145.127 22.064 145.751 22.352C146.387 22.628 146.891 23 147.263 23.468V18.68H149.333V32H147.263V30.506C146.927 30.986 146.459 31.382 145.859 31.694C145.271 32.006 144.593 32.162 143.825 32.162C142.961 32.162 142.169 31.946 141.449 31.514C140.741 31.07 140.177 30.458 139.757 29.678C139.349 28.886 139.145 27.992 139.145 26.996ZM147.263 27.032C147.263 26.348 147.119 25.754 146.831 25.25C146.555 24.746 146.189 24.362 145.733 24.098C145.277 23.834 144.785 23.702 144.257 23.702C143.729 23.702 143.237 23.834 142.781 24.098C142.325 24.35 141.953 24.728 141.665 25.232C141.389 25.724 141.251 26.312 141.251 26.996C141.251 27.68 141.389 28.28 141.665 28.796C141.953 29.312 142.325 29.708 142.781 29.984C143.249 30.248 143.741 30.38 144.257 30.38C144.785 30.38 145.277 30.248 145.733 29.984C146.189 29.72 146.555 29.336 146.831 28.832C147.119 28.316 147.263 27.716 147.263 27.032ZM161.118 26.798C161.118 27.17 161.094 27.506 161.046 27.806H153.468C153.528 28.598 153.822 29.234 154.35 29.714C154.878 30.194 155.526 30.434 156.294 30.434C157.398 30.434 158.178 29.972 158.634 29.048H160.848C160.548 29.96 160.002 30.71 159.21 31.298C158.43 31.874 157.458 32.162 156.294 32.162C155.346 32.162 154.494 31.952 153.738 31.532C152.994 31.1 152.406 30.5 151.974 29.732C151.554 28.952 151.344 28.052 151.344 27.032C151.344 26.012 151.548 25.118 151.956 24.35C152.376 23.57 152.958 22.97 153.702 22.55C154.458 22.13 155.322 21.92 156.294 21.92C157.23 21.92 158.064 22.124 158.796 22.532C159.528 22.94 160.098 23.516 160.506 24.26C160.914 24.992 161.118 25.838 161.118 26.798ZM158.976 26.15C158.964 25.394 158.694 24.788 158.166 24.332C157.638 23.876 156.984 23.648 156.204 23.648C155.496 23.648 154.89 23.876 154.386 24.332C153.882 24.776 153.582 25.382 153.486 26.15H158.976ZM167.061 27.05L171.633 32H168.861L165.189 27.734V32H163.137V18.68H165.189V26.42L168.789 22.082H171.633L167.061 27.05ZM177.406 32.162C176.47 32.162 175.624 31.952 174.868 31.532C174.112 31.1 173.518 30.5 173.086 29.732C172.654 28.952 172.438 28.052 172.438 27.032C172.438 26.024 172.66 25.13 173.104 24.35C173.548 23.57 174.154 22.97 174.922 22.55C175.69 22.13 176.548 21.92 177.496 21.92C178.444 21.92 179.302 22.13 180.07 22.55C180.838 22.97 181.444 23.57 181.888 24.35C182.332 25.13 182.554 26.024 182.554 27.032C182.554 28.04 182.326 28.934 181.87 29.714C181.414 30.494 180.79 31.1 179.998 31.532C179.218 31.952 178.354 32.162 177.406 32.162ZM177.406 30.38C177.934 30.38 178.426 30.254 178.882 30.002C179.35 29.75 179.728 29.372 180.016 28.868C180.304 28.364 180.448 27.752 180.448 27.032C180.448 26.312 180.31 25.706 180.034 25.214C179.758 24.71 179.392 24.332 178.936 24.08C178.48 23.828 177.988 23.702 177.46 23.702C176.932 23.702 176.44 23.828 175.984 24.08C175.54 24.332 175.186 24.71 174.922 25.214C174.658 25.706 174.526 26.312 174.526 27.032C174.526 28.1 174.796 28.928 175.336 29.516C175.888 30.092 176.578 30.38 177.406 30.38ZM193.511 22.082L187.427 36.662H185.303L187.319 31.838L183.413 22.082H185.699L188.489 29.642L191.387 22.082H193.511ZM194.375 26.996C194.375 26 194.579 25.118 194.987 24.35C195.407 23.582 195.971 22.988 196.679 22.568C197.399 22.136 198.191 21.92 199.055 21.92C199.835 21.92 200.513 22.076 201.089 22.388C201.677 22.688 202.145 23.066 202.493 23.522V22.082H204.563V32H202.493V30.524C202.145 30.992 201.671 31.382 201.071 31.694C200.471 32.006 199.787 32.162 199.019 32.162C198.167 32.162 197.387 31.946 196.679 31.514C195.971 31.07 195.407 30.458 194.987 29.678C194.579 28.886 194.375 27.992 194.375 26.996ZM202.493 27.032C202.493 26.348 202.349 25.754 202.061 25.25C201.785 24.746 201.419 24.362 200.963 24.098C200.507 23.834 200.015 23.702 199.487 23.702C198.959 23.702 198.467 23.834 198.011 24.098C197.555 24.35 197.183 24.728 196.895 25.232C196.619 25.724 196.481 26.312 196.481 26.996C196.481 27.68 196.619 28.28 196.895 28.796C197.183 29.312 197.555 29.708 198.011 29.984C198.479 30.248 198.971 30.38 199.487 30.38C200.015 30.38 200.507 30.248 200.963 29.984C201.419 29.72 201.785 29.336 202.061 28.832C202.349 28.316 202.493 27.716 202.493 27.032ZM208.086 32.126C207.714 32.126 207.402 32 207.15 31.748C206.898 31.496 206.772 31.184 206.772 30.812C206.772 30.44 206.898 30.128 207.15 29.876C207.402 29.624 207.714 29.498 208.086 29.498C208.446 29.498 208.752 29.624 209.004 29.876C209.256 30.128 209.382 30.44 209.382 30.812C209.382 31.184 209.256 31.496 209.004 31.748C208.752 32 208.446 32.126 208.086 32.126Z" fill="white"/>
<mask id="path-2-inside-1" fill="white">
<path d="M31.5001 41.8108C31.5001 43.6662 29.9878 45.1961 28.1532 44.9193C25.0907 44.4572 22.1551 43.3642 19.5554 41.701C16.0197 39.4391 13.264 36.2241 11.6367 32.4627C10.0094 28.7012 9.58366 24.5623 10.4132 20.5691C11.2428 16.576 13.2905 12.9081 16.2973 10.0292C19.3042 7.15036 23.1351 5.18982 27.3057 4.39554C31.4763 3.60126 35.7992 4.00891 39.7278 5.56695C43.6564 7.12499 47.0143 9.76343 49.3767 13.1486C51.0864 15.5985 52.2192 18.3598 52.7147 21.2419C53.029 23.0704 51.4961 24.5851 49.6407 24.5851L34.8595 24.5851C33.0042 24.5851 31.5001 26.0891 31.5001 27.9445V41.8108Z"/>
</mask>
<path d="M31.5001 41.8108C31.5001 43.6662 29.9878 45.1961 28.1532 44.9193C25.0907 44.4572 22.1551 43.3642 19.5554 41.701C16.0197 39.4391 13.264 36.2241 11.6367 32.4627C10.0094 28.7012 9.58366 24.5623 10.4132 20.5691C11.2428 16.576 13.2905 12.9081 16.2973 10.0292C19.3042 7.15036 23.1351 5.18982 27.3057 4.39554C31.4763 3.60126 35.7992 4.00891 39.7278 5.56695C43.6564 7.12499 47.0143 9.76343 49.3767 13.1486C51.0864 15.5985 52.2192 18.3598 52.7147 21.2419C53.029 23.0704 51.4961 24.5851 49.6407 24.5851L34.8595 24.5851C33.0042 24.5851 31.5001 26.0891 31.5001 27.9445V41.8108Z" stroke="white" stroke-width="5.375" mask="url(#path-2-inside-1)"/>
<mask id="path-3-inside-2" fill="white">
<path d="M5.50005 9.52627C4.68577 10.9366 4.19482 12.5102 4.06263 14.1334C3.93044 15.7566 4.16032 17.3889 4.73567 18.9124C5.31102 20.436 6.21749 21.8128 7.38962 22.9434C8.56176 24.074 9.97032 24.9303 11.5136 25.4503L15.0263 15.0263L5.50005 9.52627Z"/>
</mask>
<path d="M5.50005 9.52627C4.68577 10.9366 4.19482 12.5102 4.06263 14.1334C3.93044 15.7566 4.16032 17.3889 4.73567 18.9124C5.31102 20.436 6.21749 21.8128 7.38962 22.9434C8.56176 24.074 9.97032 24.9303 11.5136 25.4503L15.0263 15.0263L5.50005 9.52627Z" stroke="white" stroke-width="5.38" mask="url(#path-3-inside-2)"/>
<path d="M35.0782 30.5938C35.0782 29.2044 36.2045 28.0781 37.5939 28.0781H51.5501C53.3561 28.0781 54.5737 29.9247 53.8623 31.5847L49.1286 42.63C48.8522 43.2749 48.3189 43.7751 47.6576 44.0098L38.4351 47.2823C36.7977 47.8633 35.0782 46.649 35.0782 44.9115V30.5938Z" stroke="white" stroke-width="2.15625"/>
</svg>
