<svg width="28" height="28" viewBox="0 0 28 28" fill="none" xmlns="http://www.w3.org/2000/svg">
<path d="M0 14C0 6.26801 6.26801 0 14 0C21.732 0 28 6.26801 28 14C28 21.732 21.732 28 14 28C6.26801 28 0 21.732 0 14Z" fill="#55ACEE"/>
<path d="M13.5807 11.3794C13.596 11.6315 13.379 11.8358 13.1283 11.8054L13.1204 11.8045C11.3382 11.5771 9.78113 10.806 8.45911 9.51085L8.16942 9.22281C8.00398 9.05832 7.72355 9.12263 7.64632 9.34278C7.29378 10.4006 7.51901 11.5178 8.25347 12.2691C8.64518 12.6844 8.55704 12.7437 7.88134 12.4965C7.57963 12.395 7.40373 12.5481 7.48003 12.8572C7.55328 13.1539 7.67091 13.5161 7.77362 13.7125C8.02823 14.2069 8.54725 14.6913 9.11523 14.978C9.23399 15.0343 9.19556 15.2123 9.06416 15.2146L9.02709 15.2153C8.4787 15.2153 8.45911 15.2252 8.51787 15.4328C8.71372 16.0754 9.48735 16.7575 10.3491 17.0541L10.3732 17.0624C10.6034 17.1411 10.6363 17.4532 10.4274 17.5781C9.64403 18.0329 8.72352 18.2899 7.803 18.3097C7.36233 18.3196 7 18.3591 7 18.3888C7 18.4877 8.19471 19.0413 8.88999 19.2588C10.9758 19.9014 13.4534 19.6246 15.314 18.5272C16.636 17.7462 17.958 16.194 18.575 14.6913C18.9079 13.8905 19.2409 12.4273 19.2409 11.7254C19.2409 11.2706 19.2703 11.2113 19.8187 10.6676C20.1418 10.3512 20.4454 10.0052 20.5041 9.9063C20.6021 9.71846 20.5923 9.71846 20.0929 9.88653C19.2605 10.1831 19.143 10.1436 19.5543 9.69869C19.8578 9.38232 20.2202 8.80892 20.2202 8.64085C20.2202 8.61119 20.0733 8.66062 19.9068 8.7496C19.7305 8.84846 19.3388 8.99676 19.045 9.08573C18.7112 9.19184 18.3471 9.13879 18.0574 8.94182L18.0364 8.92755C17.772 8.7496 17.3999 8.55187 17.204 8.49255C16.7046 8.35414 15.9407 8.37392 15.4903 8.5321C14.2662 8.97698 13.4926 10.1238 13.5807 11.3794Z" fill="white"/>
</svg>
